#!OML:ASF F:\VICON\USERDATA\INSTALL\rory3\rory3.ASF
:FULLY-SPECIFIED
:DEGREES
266
root 0.451445 18.1233 14.1959 -3.59406 0.00422658 -4.54784
lowerback 8.50867 -0.944349 1.92254
upperback 1.08259 -0.949687 3.28249
thorax -3.62502 -0.478745 2.43308
lowerneck -16.2175 -2.8187 -1.69217
upperneck 19.1459 -3.68271 0.965796
head 8.70632 -1.75498 0.157423
rclavicle 1.54058e-015 -1.90833e-014
rhumerus -35.8334 -22.8046 -74.1067
rradius 20.0732
rwrist 12.0522
rhand -15.0983 23.9715
rfingers 7.12502
rthumb 11.0699 -5.71657
lclavicle 1.54058e-015 -1.90833e-014
lhumerus -31.5605 -4.07544 83.1412
lradius 31.428
lwrist 4.54134
lhand -24.7967 29.5777
lfingers 7.12502
lthumb 1.70796 59.5507
rfemur -15.5588 8.97126 29.5707
rtibia 28.3047
rfoot -6.6497 -4.52626
rtoes 14.0055
lfemur -6.62761 0.144599 -15.0035
ltibia 65.7457
lfoot 8.02944 -15.0484
ltoes -9.04851
267
root 0.437582 18.1403 14.3675 -3.65519 -0.158526 -4.73045
lowerback 8.50106 -0.835206 2.03761
upperback 1.0307 -0.791183 3.30421
thorax -3.68037 -0.40147 2.37345
lowerneck -15.5776 -2.7971 -1.82255
upperneck 18.8586 -3.65686 1.10588
head 8.49845 -1.74261 0.240166
rclavicle 1.11444e-014 -2.06736e-014
rhumerus -35.8 -22.318 -74.3621
rradius 20.442
rwrist 11.7187
rhand -15.1518 23.2029
rfingers 7.12502
rthumb 11.0183 -6.48795
lclavicle 1.11444e-014 -2.06736e-014
lhumerus -31.7607 -3.73418 83.2309
lradius 31.1948
lwrist 3.57135
lhand -23.7274 31.195
lfingers 7.12502
lthumb 2.74063 61.1571
rfemur -14.8675 9.32219 29.9538
rtibia 28.3003
rfoot -6.99227 -4.79776
rtoes 13.6553
lfemur -7.89572 0.651484 -14.6235
ltibia 66.8825
lfoot 6.5011 -14.4697
ltoes -12.2552
268
root 0.435521 18.1509 14.5467 -3.70177 0.00360533 -4.67354
lowerback 8.34003 -0.831783 2.12885
upperback 1.04279 -0.791514 3.14852
thorax -3.58119 -0.403684 2.15635
lowerneck -15.2338 -2.82733 -1.85133
upperneck 18.6961 -3.73468 1.29108
head 8.38731 -1.76501 0.303581
rclavicle -1.25483e-014 3.33958e-014
rhumerus -35.4322 -22.104 -74.7298
rradius 20.384
rwrist 11.5015
rhand -15.5256 22.9115
rfingers 7.12502
rthumb 10.6578 -6.79817
lclavicle -1.25483e-014 3.33958e-014
lhumerus -32.0698 -4.03839 83.3926
lradius 30.9256
lwrist 4.01949
lhand -25.7048 26.5974
lfingers 7.12502
lthumb 0.83084 56.5755
rfemur -14.0689 9.00409 29.9842
rtibia 28.2476
rfoot -7.89038 -4.75664
rtoes 13.8844
lfemur -9.03627 0.831307 -14.6589
ltibia 67.7628
lfoot 4.74061 -13.4618
ltoes -13.043
269
root 0.42886 18.1602 14.7106 -3.61853 0.12227 -4.70495
lowerback 8.26218 -0.818356 2.20113
upperback 1.02378 -0.772294 3.07789
thorax -3.55977 -0.395456 2.03874
lowerneck -15.2934 -2.86721 -1.87184
upperneck 18.8398 -3.78827 1.30005
head 8.44806 -1.78974 0.301873
rclavicle -9.06955e-016 -1.82882e-014
rhumerus -34.8915 -21.5275 -75.3114
rradius 20.5341
rwrist 10.6004
rhand -15.6711 23.2656
rfingers 7.12502
rthumb 10.5174 -6.4513
lclavicle -9.06955e-016 -1.82882e-014
lhumerus -32.244 -4.15189 83.5518
lradius 30.8205
lwrist 4.55141
lhand -24.2985 27.4651
lfingers 7.12502
lthumb 2.18912 57.4336
rfemur -13.5037 8.60763 30.1058
rtibia 28.1898
rfoot -8.52606 -4.55994
rtoes 13.8729
lfemur -10.3698 1.04323 -14.5698
ltibia 68.4538
lfoot 3.14885 -12.6828
ltoes -11.1015
270
root 0.415464 18.1699 14.8681 -3.60691 -0.122629 -4.79584
lowerback 8.32975 -0.671546 2.20949
upperback 1.05106 -0.574066 3.08538
thorax -3.57289 -0.297114 2.02036
lowerneck -15.5146 -2.87469 -1.85998
upperneck 19.098 -3.77394 1.17053
head 8.5722 -1.79297 0.253332
rclavicle 1.07219e-014 1.15295e-014
rhumerus -34.3855 -20.8811 -75.7742
rradius 20.936
rwrist 9.83696
rhand -15.2833 23.2586
rfingers 7.12502
rthumb 10.8915 -6.43897
lclavicle 1.07219e-014 1.15295e-014
lhumerus -32.3404 -4.38308 83.9064
lradius 30.5893
lwrist 5.88579
lhand -25.0462 24.1586
lfingers 7.12502
lthumb 1.46697 54.1333
rfemur -12.917 8.68976 30.3736
rtibia 28.1514
rfoot -9.05043 -4.48084
rtoes 13.6514
lfemur -11.6749 1.55889 -14.362
ltibia 68.9804
lfoot 2.19191 -12.2368
ltoes -9.73019
271
root 0.413901 18.1889 15.0401 -3.57963 -0.289263 -4.58494
lowerback 8.18365 -0.50117 2.11888
upperback 1.1013 -0.37021 2.91148
thorax -3.44333 -0.195308 1.86479
lowerneck -15.5595 -2.94264 -1.69651
upperneck 19.1595 -3.88457 1.06039
head 8.59701 -1.84409 0.175091
rclavicle -2.84511e-015 2.06736e-014
rhumerus -33.9519 -20.225 -76.3117
rradius 21.3224
rwrist 8.92495
rhand -15.2033 23.3485
rfingers 7.12502
rthumb 10.9687 -6.34491
lclavicle -2.84511e-015 2.06736e-014
lhumerus -32.2786 -4.02171 83.7168
lradius 30.7934
lwrist 3.65282
lhand -24.0619 26.2661
lfingers 7.12502
lthumb 2.41753 56.2322
rfemur -12.2466 8.49207 30.2284
rtibia 28.0482
rfoot -9.60299 -4.19573
rtoes 14.1968
lfemur -12.7989 1.93022 -14.6472
ltibia 69.2928
lfoot 1.33202 -11.6205
ltoes -8.38996
272
root 0.417445 18.198 15.2109 -3.54563 -0.393403 -4.66076
lowerback 8.02287 -0.402235 2.38139
upperback 1.16498 -0.22826 2.81609
thorax -3.29126 -0.127878 1.60011
lowerneck -15.5512 -2.97839 -1.69913
upperneck 19.137 -3.94951 1.13695
head 8.59059 -1.86679 0.193747
rclavicle -5.50385e-015 7.95139e-015
rhumerus -33.5124 -19.4208 -76.8989
rradius 21.7529
rwrist 8.11154
rhand -15.5484 23.4369
rfingers 7.12502
rthumb 10.6358 -6.27392
lclavicle -5.50385e-015 7.95139e-015
lhumerus -32.6192 -5.3015 84.5488
lradius 30.7806
lwrist 7.66237
lhand -28.2093 24.6062
lfingers 7.12502
lthumb -1.58807 54.58
rfemur -11.5424 8.1563 30.3531
rtibia 27.8924
rfoot -10.0718 -3.87294
rtoes 15.1459
lfemur -13.8643 2.25949 -14.6409
ltibia 69.4874
lfoot 0.369856 -11.1091
ltoes -7.40601
273
root 0.410413 18.1937 15.3593 -3.37908 -0.701539 -5.1333
lowerback 8.10641 -0.255767 2.86101
upperback 1.04199 0.0196976 2.88081
thorax -3.46802 -0.0116995 1.37284
lowerneck -15.481 -2.96923 -1.80217
upperneck 19.179 -3.95748 1.33935
head 8.59904 -1.85687 0.278515
rclavicle -3.24267e-015 -7.15625e-015
rhumerus -33.2558 -18.7404 -77.3236
rradius 22.1928
rwrist 7.45648
rhand -15.6653 23.2308
rfingers 7.12502
rthumb 10.5231 -6.48578
lclavicle -3.24267e-015 -7.15625e-015
lhumerus -32.74 -4.711 84.2687
lradius 30.7288
lwrist 5.41824
lhand -24.487 29.5014
lfingers 7.12502
lthumb 2.00698 59.4717
rfemur -11.1495 8.2969 30.958
rtibia 27.7977
rfoot -10.5055 -3.70548
rtoes 15.6613
lfemur -15.2482 2.81741 -14.0571
ltibia 69.649
lfoot -0.489196 -10.4635
ltoes -7.12
274
root 0.40206 18.1865 15.5084 -3.38581 -1.07741 -5.42514
lowerback 8.38806 -0.0810843 3.10246
upperback 0.961227 0.292545 2.90474
thorax -3.7091 0.118284 1.23364
lowerneck -15.5457 -2.99079 -1.79521
upperneck 19.3242 -3.99315 1.3495
head 8.66077 -1.87076 0.274538
rclavicle -9.19379e-015 6.36111e-015
rhumerus -32.8718 -17.9164 -77.7948
rradius 22.4618
rwrist 6.66743
rhand -15.6513 23.4565
rfingers 7.12502
rthumb 10.5366 -6.25938
lclavicle -9.19379e-015 6.36111e-015
lhumerus -32.9122 -4.65731 84.3747
lradius 30.4427
lwrist 5.53462
lhand -24.8515 29.7846
lfingers 7.12502
lthumb 1.65499 59.7579
rfemur -10.5881 8.42114 31.4214
rtibia 27.7373
rfoot -11.0158 -3.48391
rtoes 15.4474
lfemur -16.3429 3.41772 -13.6653
ltibia 69.6307
lfoot -1.60311 -9.70521
ltoes -7.49622
275
root 0.397183 18.1766 15.6699 -3.38732 -1.40107 -5.48717
lowerback 8.41792 0.0793242 3.14169
upperback 0.959007 0.509792 2.87231
thorax -3.72718 0.225031 1.15307
lowerneck -15.7104 -2.98859 -1.79602
upperneck 19.6009 -3.98324 1.30678
head 8.78389 -1.86793 0.257119
rclavicle -1.03368e-014 -3.97569e-016
rhumerus -32.4865 -16.8609 -78.3543
rradius 23.02
rwrist 5.8728
rhand -15.6547 23.6819
rfingers 7.12502
rthumb 10.5333 -6.03414
lclavicle -1.03368e-014 -3.97569e-016
lhumerus -33.2571 -4.47821 84.5235
lradius 30.5216
lwrist 5.95561
lhand -25.8685 28.7974
lfingers 7.12502
lthumb 0.672755 58.7761
rfemur -9.96208 8.43095 31.6043
rtibia 27.7182
rfoot -11.5248 -3.37595
rtoes 15.651
lfemur -17.3149 3.9329 -13.6138
ltibia 69.3976
lfoot -2.63118 -8.94589
ltoes -7.8198
276
root 0.397936 18.1714 15.8399 -3.40783 -1.64883 -5.58701
lowerback 8.30092 0.205908 3.37119
upperback 0.996144 0.688273 2.80118
thorax -3.6191 0.31099 0.930251
lowerneck -15.6998 -2.95114 -1.72472
upperneck 19.6637 -3.93705 1.24657
head 8.79978 -1.84704 0.230453
rclavicle -1.0051e-014 4.77083e-015
rhumerus -32.2718 -15.9039 -78.849
rradius 23.8904
rwrist 5.52973
rhand -16.0143 22.9192
rfingers 7.12502
rthumb 10.1864 -6.81418
lclavicle -1.0051e-014 4.77083e-015
lhumerus -33.7039 -4.00655 84.4384
lradius 31.1023
lwrist 5.24696
lhand -25.3172 29.9939
lfingers 7.12502
lthumb 1.2052 59.9702
rfemur -9.30252 8.38 31.8066
rtibia 27.7999
rfoot -12.1621 -3.31967
rtoes 15.4268
lfemur -18.1581 4.25673 -13.5615
ltibia 68.9158
lfoot -3.40042 -8.30402
ltoes -6.73941
277
root 0.398892 18.1669 16.011 -3.43212 -1.85705 -5.58421
lowerback 8.16067 0.366862 3.53013
upperback 1.07202 0.900317 2.67057
thorax -3.45549 0.415554 0.682798
lowerneck -15.6726 -2.99709 -1.69281
upperneck 19.6207 -4.01431 1.27513
head 8.78129 -1.87815 0.226126
rclavicle -5.58461e-015 4.96962e-015
rhumerus -32.0595 -15.2083 -79.2892
rradius 24.7408
rwrist 5.13121
rhand -16.3408 21.5695
rfingers 7.12502
rthumb 9.87136 -8.17904
lclavicle -5.58461e-015 4.96962e-015
lhumerus -33.8919 -3.8067 84.3467
lradius 31.4168
lwrist 4.19991
lhand -23.7821 32.6613
lfingers 7.12502
lthumb 2.68781 62.6241
rfemur -8.66268 8.36149 31.8946
rtibia 27.9761
rfoot -12.8757 -3.20846
rtoes 15.0099
lfemur -18.9126 4.48742 -13.6602
ltibia 68.2608
lfoot -4.26712 -7.46136
ltoes -6.67618
278
root 0.402671 18.156 16.1704 -3.39738 -2.04328 -5.42578
lowerback 8.18051 0.511758 3.53056
upperback 1.11388 1.08577 2.49814
thorax -3.41707 0.507358 0.483484
lowerneck -15.9344 -3.03968 -1.72304
upperneck 19.7143 -4.09837 1.43137
head 8.86661 -1.90026 0.268947
rclavicle 2.09842e-014 8.54774e-015
rhumerus -31.6954 -14.4321 -79.7795
rradius 25.4801
rwrist 4.43856
rhand -15.905 20.3582
rfingers 7.12502
rthumb 10.2918 -9.36997
lclavicle 2.09842e-014 8.54774e-015
lhumerus -33.8375 -3.76741 84.3486
lradius 31.3203
lwrist 3.72942
lhand -23.1487 33.3424
lfingers 7.12502
lthumb 3.29949 63.2967
rfemur -8.19998 8.27304 31.7852
rtibia 28.2305
rfoot -13.5629 -3.10413
rtoes 14.4086
lfemur -19.8285 4.62166 -13.9648
ltibia 67.4831
lfoot -5.06353 -6.60365
ltoes -8.85503
279
root 0.405032 18.1359 16.3204 -3.31453 -2.2558 -5.52569
lowerback 8.38102 0.612614 3.67566
upperback 1.06206 1.2448 2.4611
thorax -3.57628 0.581532 0.343871
lowerneck -16.1306 -3.03002 -1.80696
upperneck 19.8184 -4.08848 1.54678
head 8.94248 -1.88707 0.319462
rclavicle -1.91082e-014 1.68967e-014
rhumerus -31.3006 -13.416 -80.2338
rradius 26.0829
rwrist 3.67394
rhand -14.9453 19.0179
rfingers 7.12502
rthumb 11.2175 -10.6622
lclavicle -1.91082e-014 1.68967e-014
lhumerus -34.0059 -3.53698 84.4364
lradius 31.3239
lwrist 4.06343
lhand -22.9887 32.18
lfingers 7.12502
lthumb 3.45404 62.1318
rfemur -7.86252 8.13958 31.9456
rtibia 28.5086
rfoot -14.291 -3.00678
rtoes 14.1256
lfemur -20.9443 4.74746 -13.956
ltibia 66.6464
lfoot -5.58665 -5.99247
ltoes -11.7348
280
root 0.405077 18.111 16.4634 -3.111 -2.49452 -5.75207
lowerback 8.44213 0.698777 3.91451
upperback 0.966853 1.3882 2.44347
thorax -3.70052 0.646472 0.174521
lowerneck -15.7572 -2.97154 -1.73135
upperneck 19.4251 -4.01655 1.51659
head 8.73626 -1.85642 0.313784
rclavicle -1.85802e-014 -3.04141e-014
rhumerus -30.9367 -12.6812 -80.6291
rradius 26.556
rwrist 3.19553
rhand -14.4151 18.2022
rfingers 7.12502
rthumb 11.7288 -11.4495
lclavicle -1.85802e-014 -3.04141e-014
lhumerus -34.3089 -3.29477 84.4335
lradius 31.2419
lwrist 4.33207
lhand -23.7561 30.5629
lfingers 7.12502
lthumb 2.71293 60.5254
rfemur -7.73601 8.08732 32.2386
rtibia 28.8322
rfoot -14.9291 -2.92315
rtoes 13.7792
lfemur -22.1835 4.95736 -13.7853
ltibia 65.8353
lfoot -6.17815 -5.34626
ltoes -13.1538
